<mxfile host="app.diagrams.net" modified="2024-05-30T19:09:51.531Z" agent="Mozilla/5.0 (Windows NT 10.0; Win64; x64) AppleWebKit/537.36 (KHTML, like Gecko) Chrome/125.0.0.0 Safari/537.36" etag="XfetXUG1fqPMPYx8YfLS" version="24.3.1" type="github">
  <diagram name="Strona-1" id="Us462Q0NrzWCBAyONTKx">
    <mxGraphModel dx="2203" dy="2340" grid="1" gridSize="10" guides="1" tooltips="1" connect="1" arrows="1" fold="1" page="1" pageScale="1" pageWidth="1654" pageHeight="1169" math="0" shadow="0">
      <root>
        <mxCell id="0" />
        <mxCell id="1" parent="0" />
        <mxCell id="w8j8DnIwG2Rcdh9Socys-90" value="" style="html=1;whiteSpace=wrap;" vertex="1" parent="1">
          <mxGeometry x="70" y="394" width="300" height="226" as="geometry" />
        </mxCell>
        <mxCell id="w8j8DnIwG2Rcdh9Socys-89" value="" style="html=1;whiteSpace=wrap;" vertex="1" parent="1">
          <mxGeometry x="440" y="440" width="440" height="496" as="geometry" />
        </mxCell>
        <mxCell id="w8j8DnIwG2Rcdh9Socys-23" value="" style="html=1;whiteSpace=wrap;" vertex="1" parent="1">
          <mxGeometry x="280" y="-40" width="730" height="400" as="geometry" />
        </mxCell>
        <mxCell id="w8j8DnIwG2Rcdh9Socys-5" value="FigureManager" style="swimlane;fontStyle=1;align=center;verticalAlign=top;childLayout=stackLayout;horizontal=1;startSize=26;horizontalStack=0;resizeParent=1;resizeParentMax=0;resizeLast=0;collapsible=1;marginBottom=0;whiteSpace=wrap;html=1;" vertex="1" parent="1">
          <mxGeometry x="340" y="30" width="250" height="290" as="geometry" />
        </mxCell>
        <mxCell id="w8j8DnIwG2Rcdh9Socys-87" style="edgeStyle=orthogonalEdgeStyle;rounded=0;orthogonalLoop=1;jettySize=auto;html=1;" edge="1" parent="w8j8DnIwG2Rcdh9Socys-5" source="w8j8DnIwG2Rcdh9Socys-6">
          <mxGeometry relative="1" as="geometry">
            <mxPoint x="360" y="48" as="targetPoint" />
          </mxGeometry>
        </mxCell>
        <mxCell id="w8j8DnIwG2Rcdh9Socys-6" value="+ GridPane: grdPane&lt;div&gt;+&amp;nbsp;&lt;span style=&quot;font-weight: 700; text-align: center; background-color: initial;&quot;&gt;GameStateManager g&lt;/span&gt;&lt;span style=&quot;font-weight: 700; text-align: center; background-color: initial;&quot;&gt;ameStateManager&lt;/span&gt;&lt;/div&gt;" style="text;strokeColor=none;fillColor=none;align=left;verticalAlign=top;spacingLeft=4;spacingRight=4;overflow=hidden;rotatable=0;points=[[0,0.5],[1,0.5]];portConstraint=eastwest;whiteSpace=wrap;html=1;" vertex="1" parent="w8j8DnIwG2Rcdh9Socys-5">
          <mxGeometry y="26" width="250" height="44" as="geometry" />
        </mxCell>
        <mxCell id="w8j8DnIwG2Rcdh9Socys-7" value="" style="line;strokeWidth=1;fillColor=none;align=left;verticalAlign=middle;spacingTop=-1;spacingLeft=3;spacingRight=3;rotatable=0;labelPosition=right;points=[];portConstraint=eastwest;strokeColor=inherit;" vertex="1" parent="w8j8DnIwG2Rcdh9Socys-5">
          <mxGeometry y="70" width="250" height="8" as="geometry" />
        </mxCell>
        <mxCell id="w8j8DnIwG2Rcdh9Socys-8" value="+ FigureManager&lt;div&gt;+ addFigure() ImageView&lt;/div&gt;&lt;div&gt;+&amp;nbsp;setupDragNDropImageView void&lt;/div&gt;&lt;div&gt;+&amp;nbsp;updateFigureInteractivity void&lt;/div&gt;&lt;div&gt;+&amp;nbsp;moveFigure void&lt;/div&gt;&lt;div&gt;+&amp;nbsp;getPositionOf Position&lt;/div&gt;&lt;div&gt;+&amp;nbsp;removeFigure void&lt;/div&gt;&lt;div&gt;+&amp;nbsp;getPositionFromImageView Position&lt;/div&gt;&lt;div&gt;+&amp;nbsp;getFigureAt Figure&lt;/div&gt;&lt;div&gt;+&amp;nbsp;highlightPossibleMoves void&lt;/div&gt;&lt;div&gt;+&amp;nbsp;highlightPosition void&lt;/div&gt;&lt;div&gt;+&amp;nbsp;clearHighlights void&lt;/div&gt;&lt;div&gt;+&amp;nbsp;getNode Node&lt;/div&gt;" style="text;strokeColor=none;fillColor=none;align=left;verticalAlign=top;spacingLeft=4;spacingRight=4;overflow=hidden;rotatable=0;points=[[0,0.5],[1,0.5]];portConstraint=eastwest;whiteSpace=wrap;html=1;" vertex="1" parent="w8j8DnIwG2Rcdh9Socys-5">
          <mxGeometry y="78" width="250" height="212" as="geometry" />
        </mxCell>
        <mxCell id="w8j8DnIwG2Rcdh9Socys-9" value="GameStateManager" style="swimlane;fontStyle=1;align=center;verticalAlign=top;childLayout=stackLayout;horizontal=1;startSize=26;horizontalStack=0;resizeParent=1;resizeParentMax=0;resizeLast=0;collapsible=1;marginBottom=0;whiteSpace=wrap;html=1;" vertex="1" parent="1">
          <mxGeometry x="710" y="30" width="260" height="290" as="geometry" />
        </mxCell>
        <mxCell id="w8j8DnIwG2Rcdh9Socys-10" value="+ GridPane: grdPane" style="text;strokeColor=none;fillColor=none;align=left;verticalAlign=top;spacingLeft=4;spacingRight=4;overflow=hidden;rotatable=0;points=[[0,0.5],[1,0.5]];portConstraint=eastwest;whiteSpace=wrap;html=1;" vertex="1" parent="w8j8DnIwG2Rcdh9Socys-9">
          <mxGeometry y="26" width="260" height="26" as="geometry" />
        </mxCell>
        <mxCell id="w8j8DnIwG2Rcdh9Socys-11" value="" style="line;strokeWidth=1;fillColor=none;align=left;verticalAlign=middle;spacingTop=-1;spacingLeft=3;spacingRight=3;rotatable=0;labelPosition=right;points=[];portConstraint=eastwest;strokeColor=inherit;" vertex="1" parent="w8j8DnIwG2Rcdh9Socys-9">
          <mxGeometry y="52" width="260" height="8" as="geometry" />
        </mxCell>
        <mxCell id="w8j8DnIwG2Rcdh9Socys-12" value="+&amp;nbsp; GameStateManager()&lt;div&gt;+ isMoveAllowed boolean&lt;/div&gt;&lt;div&gt;+&lt;span style=&quot;background-color: initial;&quot;&gt;&amp;nbsp;&lt;/span&gt;&lt;span style=&quot;background-color: initial;&quot;&gt;captureFigure void&lt;/span&gt;&lt;/div&gt;&lt;div&gt;&lt;span style=&quot;background-color: initial;&quot;&gt;+&amp;nbsp;&lt;/span&gt;&lt;span style=&quot;background-color: initial;&quot;&gt;executeMove boolean&lt;/span&gt;&lt;/div&gt;&lt;div&gt;&lt;span style=&quot;background-color: initial;&quot;&gt;+&amp;nbsp;&lt;/span&gt;&lt;span style=&quot;background-color: initial;&quot;&gt;checkForCheckmate boolean&lt;/span&gt;&lt;/div&gt;&lt;div&gt;&lt;span style=&quot;background-color: initial;&quot;&gt;+&amp;nbsp;&lt;/span&gt;&lt;span style=&quot;background-color: initial;&quot;&gt;isMoveValid boolean&lt;/span&gt;&lt;/div&gt;&lt;div&gt;&lt;span style=&quot;background-color: initial;&quot;&gt;+&amp;nbsp;&lt;/span&gt;&lt;span style=&quot;background-color: initial;&quot;&gt;isKingInCheck boolean&lt;/span&gt;&lt;/div&gt;&lt;div&gt;&lt;span style=&quot;background-color: initial;&quot;&gt;+&amp;nbsp;&lt;/span&gt;&lt;span style=&quot;background-color: initial;&quot;&gt;getPossibleMoves List&lt;/span&gt;&lt;/div&gt;&lt;div&gt;&lt;span style=&quot;background-color: initial;&quot;&gt;+&amp;nbsp;&lt;/span&gt;&lt;span style=&quot;background-color: initial;&quot;&gt;getKingPosition List&lt;/span&gt;&lt;/div&gt;&lt;div&gt;&lt;span style=&quot;background-color: initial;&quot;&gt;+&amp;nbsp;&lt;/span&gt;&lt;span style=&quot;background-color: initial;&quot;&gt;getKingCheckPosition Optional&amp;lt;Position&amp;gt;&lt;/span&gt;&lt;/div&gt;&lt;div&gt;&lt;span style=&quot;background-color: initial;&quot;&gt;+&amp;nbsp;&lt;/span&gt;&lt;span style=&quot;background-color: initial;&quot;&gt;checkGameOver boolean&lt;/span&gt;&lt;/div&gt;&lt;div&gt;&lt;span style=&quot;background-color: initial;&quot;&gt;+&amp;nbsp;&lt;/span&gt;&lt;span style=&quot;background-color: initial;&quot;&gt;toggleTurn void&lt;/span&gt;&lt;/div&gt;&lt;div&gt;+&amp;nbsp;isGameOver boolean&lt;/div&gt;&lt;div&gt;+&amp;nbsp;setGameOver void&lt;/div&gt;&lt;div&gt;+&amp;nbsp;getCurrentTurn Color&lt;/div&gt;" style="text;strokeColor=none;fillColor=none;align=left;verticalAlign=top;spacingLeft=4;spacingRight=4;overflow=hidden;rotatable=0;points=[[0,0.5],[1,0.5]];portConstraint=eastwest;whiteSpace=wrap;html=1;" vertex="1" parent="w8j8DnIwG2Rcdh9Socys-9">
          <mxGeometry y="60" width="260" height="230" as="geometry" />
        </mxCell>
        <mxCell id="w8j8DnIwG2Rcdh9Socys-33" style="edgeStyle=orthogonalEdgeStyle;rounded=0;orthogonalLoop=1;jettySize=auto;html=1;exitX=0.25;exitY=0;exitDx=0;exitDy=0;" edge="1" parent="1" source="w8j8DnIwG2Rcdh9Socys-13">
          <mxGeometry relative="1" as="geometry">
            <mxPoint x="580" y="320" as="targetPoint" />
          </mxGeometry>
        </mxCell>
        <mxCell id="w8j8DnIwG2Rcdh9Socys-34" style="edgeStyle=orthogonalEdgeStyle;rounded=0;orthogonalLoop=1;jettySize=auto;html=1;exitX=0.75;exitY=0;exitDx=0;exitDy=0;" edge="1" parent="1" source="w8j8DnIwG2Rcdh9Socys-13">
          <mxGeometry relative="1" as="geometry">
            <mxPoint x="720" y="320" as="targetPoint" />
          </mxGeometry>
        </mxCell>
        <mxCell id="w8j8DnIwG2Rcdh9Socys-13" value="BoardController" style="swimlane;fontStyle=1;align=center;verticalAlign=top;childLayout=stackLayout;horizontal=1;startSize=26;horizontalStack=0;resizeParent=1;resizeParentMax=0;resizeLast=0;collapsible=1;marginBottom=0;whiteSpace=wrap;html=1;" vertex="1" parent="1">
          <mxGeometry x="510" y="480" width="280" height="370" as="geometry" />
        </mxCell>
        <mxCell id="w8j8DnIwG2Rcdh9Socys-14" value="+&amp;nbsp;&lt;span style=&quot;font-weight: 700; text-align: center;&quot;&gt;FigureManager fi&lt;/span&gt;&lt;span style=&quot;font-weight: 700; text-align: center;&quot;&gt;gureManager&lt;/span&gt;" style="text;strokeColor=none;fillColor=none;align=left;verticalAlign=top;spacingLeft=4;spacingRight=4;overflow=hidden;rotatable=0;points=[[0,0.5],[1,0.5]];portConstraint=eastwest;whiteSpace=wrap;html=1;" vertex="1" parent="w8j8DnIwG2Rcdh9Socys-13">
          <mxGeometry y="26" width="280" height="34" as="geometry" />
        </mxCell>
        <mxCell id="w8j8DnIwG2Rcdh9Socys-27" value="+&amp;nbsp;&lt;span style=&quot;font-weight: 700; text-align: center;&quot;&gt;GameStateManager g&lt;/span&gt;&lt;span style=&quot;font-weight: 700; text-align: center;&quot;&gt;ameStateManager&lt;/span&gt;" style="text;strokeColor=none;fillColor=none;align=left;verticalAlign=top;spacingLeft=4;spacingRight=4;overflow=hidden;rotatable=0;points=[[0,0.5],[1,0.5]];portConstraint=eastwest;whiteSpace=wrap;html=1;" vertex="1" parent="w8j8DnIwG2Rcdh9Socys-13">
          <mxGeometry y="60" width="280" height="34" as="geometry" />
        </mxCell>
        <mxCell id="w8j8DnIwG2Rcdh9Socys-35" value="+ GridPane gridPane" style="text;strokeColor=none;fillColor=none;align=left;verticalAlign=top;spacingLeft=4;spacingRight=4;overflow=hidden;rotatable=0;points=[[0,0.5],[1,0.5]];portConstraint=eastwest;whiteSpace=wrap;html=1;" vertex="1" parent="w8j8DnIwG2Rcdh9Socys-13">
          <mxGeometry y="94" width="280" height="34" as="geometry" />
        </mxCell>
        <mxCell id="w8j8DnIwG2Rcdh9Socys-15" value="" style="line;strokeWidth=1;fillColor=none;align=left;verticalAlign=middle;spacingTop=-1;spacingLeft=3;spacingRight=3;rotatable=0;labelPosition=right;points=[];portConstraint=eastwest;strokeColor=inherit;" vertex="1" parent="w8j8DnIwG2Rcdh9Socys-13">
          <mxGeometry y="128" width="280" height="8" as="geometry" />
        </mxCell>
        <mxCell id="w8j8DnIwG2Rcdh9Socys-47" style="edgeStyle=orthogonalEdgeStyle;rounded=0;orthogonalLoop=1;jettySize=auto;html=1;" edge="1" parent="w8j8DnIwG2Rcdh9Socys-13" source="w8j8DnIwG2Rcdh9Socys-26">
          <mxGeometry relative="1" as="geometry">
            <mxPoint x="490" y="149" as="targetPoint" />
          </mxGeometry>
        </mxCell>
        <mxCell id="w8j8DnIwG2Rcdh9Socys-26" value="- InitializedBoard() void" style="text;strokeColor=none;fillColor=none;align=left;verticalAlign=top;spacingLeft=4;spacingRight=4;overflow=hidden;rotatable=0;points=[[0,0.5],[1,0.5]];portConstraint=eastwest;whiteSpace=wrap;html=1;" vertex="1" parent="w8j8DnIwG2Rcdh9Socys-13">
          <mxGeometry y="136" width="280" height="26" as="geometry" />
        </mxCell>
        <mxCell id="w8j8DnIwG2Rcdh9Socys-16" value="+ setupFigures: void" style="text;strokeColor=none;fillColor=none;align=left;verticalAlign=top;spacingLeft=4;spacingRight=4;overflow=hidden;rotatable=0;points=[[0,0.5],[1,0.5]];portConstraint=eastwest;whiteSpace=wrap;html=1;" vertex="1" parent="w8j8DnIwG2Rcdh9Socys-13">
          <mxGeometry y="162" width="280" height="26" as="geometry" />
        </mxCell>
        <mxCell id="w8j8DnIwG2Rcdh9Socys-36" value="+ : addFigure void" style="text;strokeColor=none;fillColor=none;align=left;verticalAlign=top;spacingLeft=4;spacingRight=4;overflow=hidden;rotatable=0;points=[[0,0.5],[1,0.5]];portConstraint=eastwest;whiteSpace=wrap;html=1;" vertex="1" parent="w8j8DnIwG2Rcdh9Socys-13">
          <mxGeometry y="188" width="280" height="26" as="geometry" />
        </mxCell>
        <mxCell id="w8j8DnIwG2Rcdh9Socys-37" value="+ getGridPane: GridPane" style="text;strokeColor=none;fillColor=none;align=left;verticalAlign=top;spacingLeft=4;spacingRight=4;overflow=hidden;rotatable=0;points=[[0,0.5],[1,0.5]];portConstraint=eastwest;whiteSpace=wrap;html=1;" vertex="1" parent="w8j8DnIwG2Rcdh9Socys-13">
          <mxGeometry y="214" width="280" height="26" as="geometry" />
        </mxCell>
        <mxCell id="w8j8DnIwG2Rcdh9Socys-38" value="+ setupDragNDropForRectangle: void" style="text;strokeColor=none;fillColor=none;align=left;verticalAlign=top;spacingLeft=4;spacingRight=4;overflow=hidden;rotatable=0;points=[[0,0.5],[1,0.5]];portConstraint=eastwest;whiteSpace=wrap;html=1;" vertex="1" parent="w8j8DnIwG2Rcdh9Socys-13">
          <mxGeometry y="240" width="280" height="26" as="geometry" />
        </mxCell>
        <mxCell id="w8j8DnIwG2Rcdh9Socys-39" value="+ updateFigureOnBoard void" style="text;strokeColor=none;fillColor=none;align=left;verticalAlign=top;spacingLeft=4;spacingRight=4;overflow=hidden;rotatable=0;points=[[0,0.5],[1,0.5]];portConstraint=eastwest;whiteSpace=wrap;html=1;" vertex="1" parent="w8j8DnIwG2Rcdh9Socys-13">
          <mxGeometry y="266" width="280" height="26" as="geometry" />
        </mxCell>
        <mxCell id="w8j8DnIwG2Rcdh9Socys-40" value="+ updateFigureInteractivity void" style="text;strokeColor=none;fillColor=none;align=left;verticalAlign=top;spacingLeft=4;spacingRight=4;overflow=hidden;rotatable=0;points=[[0,0.5],[1,0.5]];portConstraint=eastwest;whiteSpace=wrap;html=1;" vertex="1" parent="w8j8DnIwG2Rcdh9Socys-13">
          <mxGeometry y="292" width="280" height="26" as="geometry" />
        </mxCell>
        <mxCell id="w8j8DnIwG2Rcdh9Socys-41" value="+ promotePawn void" style="text;strokeColor=none;fillColor=none;align=left;verticalAlign=top;spacingLeft=4;spacingRight=4;overflow=hidden;rotatable=0;points=[[0,0.5],[1,0.5]];portConstraint=eastwest;whiteSpace=wrap;html=1;" vertex="1" parent="w8j8DnIwG2Rcdh9Socys-13">
          <mxGeometry y="318" width="280" height="26" as="geometry" />
        </mxCell>
        <mxCell id="w8j8DnIwG2Rcdh9Socys-42" value="+ checkPawnPromotion void" style="text;strokeColor=none;fillColor=none;align=left;verticalAlign=top;spacingLeft=4;spacingRight=4;overflow=hidden;rotatable=0;points=[[0,0.5],[1,0.5]];portConstraint=eastwest;whiteSpace=wrap;html=1;" vertex="1" parent="w8j8DnIwG2Rcdh9Socys-13">
          <mxGeometry y="344" width="280" height="26" as="geometry" />
        </mxCell>
        <mxCell id="w8j8DnIwG2Rcdh9Socys-17" value="Chess" style="swimlane;fontStyle=1;align=center;verticalAlign=top;childLayout=stackLayout;horizontal=1;startSize=26;horizontalStack=0;resizeParent=1;resizeParentMax=0;resizeLast=0;collapsible=1;marginBottom=0;whiteSpace=wrap;html=1;" vertex="1" parent="1">
          <mxGeometry x="140" y="480" width="180" height="112" as="geometry" />
        </mxCell>
        <mxCell id="w8j8DnIwG2Rcdh9Socys-18" value="+&amp;nbsp;&lt;span style=&quot;font-weight: 700; text-align: center;&quot;&gt;BoardController board&lt;/span&gt;" style="text;strokeColor=none;fillColor=none;align=left;verticalAlign=top;spacingLeft=4;spacingRight=4;overflow=hidden;rotatable=0;points=[[0,0.5],[1,0.5]];portConstraint=eastwest;whiteSpace=wrap;html=1;" vertex="1" parent="w8j8DnIwG2Rcdh9Socys-17">
          <mxGeometry y="26" width="180" height="26" as="geometry" />
        </mxCell>
        <mxCell id="w8j8DnIwG2Rcdh9Socys-19" value="" style="line;strokeWidth=1;fillColor=none;align=left;verticalAlign=middle;spacingTop=-1;spacingLeft=3;spacingRight=3;rotatable=0;labelPosition=right;points=[];portConstraint=eastwest;strokeColor=inherit;" vertex="1" parent="w8j8DnIwG2Rcdh9Socys-17">
          <mxGeometry y="52" width="180" height="8" as="geometry" />
        </mxCell>
        <mxCell id="w8j8DnIwG2Rcdh9Socys-20" value="+ start void" style="text;strokeColor=none;fillColor=none;align=left;verticalAlign=top;spacingLeft=4;spacingRight=4;overflow=hidden;rotatable=0;points=[[0,0.5],[1,0.5]];portConstraint=eastwest;whiteSpace=wrap;html=1;" vertex="1" parent="w8j8DnIwG2Rcdh9Socys-17">
          <mxGeometry y="60" width="180" height="26" as="geometry" />
        </mxCell>
        <mxCell id="w8j8DnIwG2Rcdh9Socys-48" value="+ main void" style="text;strokeColor=none;fillColor=none;align=left;verticalAlign=top;spacingLeft=4;spacingRight=4;overflow=hidden;rotatable=0;points=[[0,0.5],[1,0.5]];portConstraint=eastwest;whiteSpace=wrap;html=1;" vertex="1" parent="w8j8DnIwG2Rcdh9Socys-17">
          <mxGeometry y="86" width="180" height="26" as="geometry" />
        </mxCell>
        <mxCell id="w8j8DnIwG2Rcdh9Socys-21" value="View" style="html=1;whiteSpace=wrap;" vertex="1" parent="1">
          <mxGeometry x="70" y="394" width="110" height="50" as="geometry" />
        </mxCell>
        <mxCell id="w8j8DnIwG2Rcdh9Socys-22" value="Controller" style="html=1;whiteSpace=wrap;" vertex="1" parent="1">
          <mxGeometry x="770" y="886" width="110" height="50" as="geometry" />
        </mxCell>
        <mxCell id="w8j8DnIwG2Rcdh9Socys-68" style="edgeStyle=orthogonalEdgeStyle;rounded=0;orthogonalLoop=1;jettySize=auto;html=1;entryX=0;entryY=0.25;entryDx=0;entryDy=0;" edge="1" parent="1" source="w8j8DnIwG2Rcdh9Socys-43" target="w8j8DnIwG2Rcdh9Socys-52">
          <mxGeometry relative="1" as="geometry">
            <Array as="points">
              <mxPoint x="1070" y="423" />
            </Array>
          </mxGeometry>
        </mxCell>
        <mxCell id="w8j8DnIwG2Rcdh9Socys-69" style="edgeStyle=orthogonalEdgeStyle;rounded=0;orthogonalLoop=1;jettySize=auto;html=1;" edge="1" parent="1" source="w8j8DnIwG2Rcdh9Socys-43" target="w8j8DnIwG2Rcdh9Socys-57">
          <mxGeometry relative="1" as="geometry" />
        </mxCell>
        <mxCell id="w8j8DnIwG2Rcdh9Socys-70" style="edgeStyle=orthogonalEdgeStyle;rounded=0;orthogonalLoop=1;jettySize=auto;html=1;entryX=0;entryY=0.25;entryDx=0;entryDy=0;" edge="1" parent="1" source="w8j8DnIwG2Rcdh9Socys-43" target="w8j8DnIwG2Rcdh9Socys-59">
          <mxGeometry relative="1" as="geometry" />
        </mxCell>
        <mxCell id="w8j8DnIwG2Rcdh9Socys-71" style="edgeStyle=orthogonalEdgeStyle;rounded=0;orthogonalLoop=1;jettySize=auto;html=1;entryX=0;entryY=0.5;entryDx=0;entryDy=0;" edge="1" parent="1" source="w8j8DnIwG2Rcdh9Socys-43" target="w8j8DnIwG2Rcdh9Socys-62">
          <mxGeometry relative="1" as="geometry" />
        </mxCell>
        <mxCell id="w8j8DnIwG2Rcdh9Socys-43" value="FigureFactory" style="swimlane;fontStyle=0;childLayout=stackLayout;horizontal=1;startSize=26;fillColor=none;horizontalStack=0;resizeParent=1;resizeParentMax=0;resizeLast=0;collapsible=1;marginBottom=0;whiteSpace=wrap;html=1;" vertex="1" parent="1">
          <mxGeometry x="1000" y="600" width="140" height="52" as="geometry" />
        </mxCell>
        <mxCell id="w8j8DnIwG2Rcdh9Socys-76" value="+ createFigure Figure" style="text;strokeColor=none;fillColor=none;align=left;verticalAlign=top;spacingLeft=4;spacingRight=4;overflow=hidden;rotatable=0;points=[[0,0.5],[1,0.5]];portConstraint=eastwest;whiteSpace=wrap;html=1;" vertex="1" parent="w8j8DnIwG2Rcdh9Socys-43">
          <mxGeometry y="26" width="140" height="26" as="geometry" />
        </mxCell>
        <mxCell id="w8j8DnIwG2Rcdh9Socys-51" style="edgeStyle=orthogonalEdgeStyle;rounded=0;orthogonalLoop=1;jettySize=auto;html=1;entryX=0;entryY=0.382;entryDx=0;entryDy=0;entryPerimeter=0;" edge="1" parent="1" source="w8j8DnIwG2Rcdh9Socys-18" target="w8j8DnIwG2Rcdh9Socys-14">
          <mxGeometry relative="1" as="geometry" />
        </mxCell>
        <mxCell id="w8j8DnIwG2Rcdh9Socys-52" value="Bishop" style="swimlane;fontStyle=0;childLayout=stackLayout;horizontal=1;startSize=26;fillColor=none;horizontalStack=0;resizeParent=1;resizeParentMax=0;resizeLast=0;collapsible=1;marginBottom=0;whiteSpace=wrap;html=1;" vertex="1" parent="1">
          <mxGeometry x="1240" y="410" width="200" height="52" as="geometry" />
        </mxCell>
        <mxCell id="w8j8DnIwG2Rcdh9Socys-55" value="+ getPossibleMove(): List" style="text;strokeColor=none;fillColor=none;align=left;verticalAlign=top;spacingLeft=4;spacingRight=4;overflow=hidden;rotatable=0;points=[[0,0.5],[1,0.5]];portConstraint=eastwest;whiteSpace=wrap;html=1;" vertex="1" parent="w8j8DnIwG2Rcdh9Socys-52">
          <mxGeometry y="26" width="200" height="26" as="geometry" />
        </mxCell>
        <mxCell id="w8j8DnIwG2Rcdh9Socys-56" value="King" style="swimlane;fontStyle=0;childLayout=stackLayout;horizontal=1;startSize=26;fillColor=none;horizontalStack=0;resizeParent=1;resizeParentMax=0;resizeLast=0;collapsible=1;marginBottom=0;whiteSpace=wrap;html=1;" vertex="1" parent="1">
          <mxGeometry x="1240" y="484" width="200" height="52" as="geometry" />
        </mxCell>
        <mxCell id="w8j8DnIwG2Rcdh9Socys-57" value="+ getPossibleMove(): List" style="text;strokeColor=none;fillColor=none;align=left;verticalAlign=top;spacingLeft=4;spacingRight=4;overflow=hidden;rotatable=0;points=[[0,0.5],[1,0.5]];portConstraint=eastwest;whiteSpace=wrap;html=1;" vertex="1" parent="w8j8DnIwG2Rcdh9Socys-56">
          <mxGeometry y="26" width="200" height="26" as="geometry" />
        </mxCell>
        <mxCell id="w8j8DnIwG2Rcdh9Socys-59" value="Knight" style="swimlane;fontStyle=0;childLayout=stackLayout;horizontal=1;startSize=26;fillColor=none;horizontalStack=0;resizeParent=1;resizeParentMax=0;resizeLast=0;collapsible=1;marginBottom=0;whiteSpace=wrap;html=1;" vertex="1" parent="1">
          <mxGeometry x="1240" y="555" width="200" height="52" as="geometry" />
        </mxCell>
        <mxCell id="w8j8DnIwG2Rcdh9Socys-60" value="+ getPossibleMove(): List" style="text;strokeColor=none;fillColor=none;align=left;verticalAlign=top;spacingLeft=4;spacingRight=4;overflow=hidden;rotatable=0;points=[[0,0.5],[1,0.5]];portConstraint=eastwest;whiteSpace=wrap;html=1;" vertex="1" parent="w8j8DnIwG2Rcdh9Socys-59">
          <mxGeometry y="26" width="200" height="26" as="geometry" />
        </mxCell>
        <mxCell id="w8j8DnIwG2Rcdh9Socys-61" value="Pawn" style="swimlane;fontStyle=0;childLayout=stackLayout;horizontal=1;startSize=26;fillColor=none;horizontalStack=0;resizeParent=1;resizeParentMax=0;resizeLast=0;collapsible=1;marginBottom=0;whiteSpace=wrap;html=1;" vertex="1" parent="1">
          <mxGeometry x="1240" y="625" width="200" height="52" as="geometry" />
        </mxCell>
        <mxCell id="w8j8DnIwG2Rcdh9Socys-62" value="+ getPossibleMove(): List" style="text;strokeColor=none;fillColor=none;align=left;verticalAlign=top;spacingLeft=4;spacingRight=4;overflow=hidden;rotatable=0;points=[[0,0.5],[1,0.5]];portConstraint=eastwest;whiteSpace=wrap;html=1;" vertex="1" parent="w8j8DnIwG2Rcdh9Socys-61">
          <mxGeometry y="26" width="200" height="26" as="geometry" />
        </mxCell>
        <mxCell id="w8j8DnIwG2Rcdh9Socys-63" value="Queen" style="swimlane;fontStyle=0;childLayout=stackLayout;horizontal=1;startSize=26;fillColor=none;horizontalStack=0;resizeParent=1;resizeParentMax=0;resizeLast=0;collapsible=1;marginBottom=0;whiteSpace=wrap;html=1;" vertex="1" parent="1">
          <mxGeometry x="1240" y="700" width="200" height="52" as="geometry" />
        </mxCell>
        <mxCell id="w8j8DnIwG2Rcdh9Socys-64" value="+ getPossibleMove(): List" style="text;strokeColor=none;fillColor=none;align=left;verticalAlign=top;spacingLeft=4;spacingRight=4;overflow=hidden;rotatable=0;points=[[0,0.5],[1,0.5]];portConstraint=eastwest;whiteSpace=wrap;html=1;" vertex="1" parent="w8j8DnIwG2Rcdh9Socys-63">
          <mxGeometry y="26" width="200" height="26" as="geometry" />
        </mxCell>
        <mxCell id="w8j8DnIwG2Rcdh9Socys-66" value="Rock" style="swimlane;fontStyle=0;childLayout=stackLayout;horizontal=1;startSize=26;fillColor=none;horizontalStack=0;resizeParent=1;resizeParentMax=0;resizeLast=0;collapsible=1;marginBottom=0;whiteSpace=wrap;html=1;" vertex="1" parent="1">
          <mxGeometry x="1240" y="780" width="200" height="52" as="geometry" />
        </mxCell>
        <mxCell id="w8j8DnIwG2Rcdh9Socys-67" value="+ getPossibleMove(): List" style="text;strokeColor=none;fillColor=none;align=left;verticalAlign=top;spacingLeft=4;spacingRight=4;overflow=hidden;rotatable=0;points=[[0,0.5],[1,0.5]];portConstraint=eastwest;whiteSpace=wrap;html=1;" vertex="1" parent="w8j8DnIwG2Rcdh9Socys-66">
          <mxGeometry y="26" width="200" height="26" as="geometry" />
        </mxCell>
        <mxCell id="w8j8DnIwG2Rcdh9Socys-72" style="edgeStyle=orthogonalEdgeStyle;rounded=0;orthogonalLoop=1;jettySize=auto;html=1;entryX=0;entryY=-0.154;entryDx=0;entryDy=0;entryPerimeter=0;" edge="1" parent="1" source="w8j8DnIwG2Rcdh9Socys-43" target="w8j8DnIwG2Rcdh9Socys-64">
          <mxGeometry relative="1" as="geometry" />
        </mxCell>
        <mxCell id="w8j8DnIwG2Rcdh9Socys-73" style="edgeStyle=orthogonalEdgeStyle;rounded=0;orthogonalLoop=1;jettySize=auto;html=1;entryX=0.02;entryY=-0.077;entryDx=0;entryDy=0;entryPerimeter=0;" edge="1" parent="1" source="w8j8DnIwG2Rcdh9Socys-43" target="w8j8DnIwG2Rcdh9Socys-67">
          <mxGeometry relative="1" as="geometry" />
        </mxCell>
        <mxCell id="w8j8DnIwG2Rcdh9Socys-79" style="edgeStyle=orthogonalEdgeStyle;rounded=0;orthogonalLoop=1;jettySize=auto;html=1;entryX=1;entryY=0.5;entryDx=0;entryDy=0;" edge="1" parent="1" source="w8j8DnIwG2Rcdh9Socys-78" target="w8j8DnIwG2Rcdh9Socys-55">
          <mxGeometry relative="1" as="geometry" />
        </mxCell>
        <mxCell id="w8j8DnIwG2Rcdh9Socys-80" style="edgeStyle=orthogonalEdgeStyle;rounded=0;orthogonalLoop=1;jettySize=auto;html=1;entryX=1;entryY=0.25;entryDx=0;entryDy=0;" edge="1" parent="1" source="w8j8DnIwG2Rcdh9Socys-78" target="w8j8DnIwG2Rcdh9Socys-56">
          <mxGeometry relative="1" as="geometry" />
        </mxCell>
        <mxCell id="w8j8DnIwG2Rcdh9Socys-83" style="edgeStyle=orthogonalEdgeStyle;rounded=0;orthogonalLoop=1;jettySize=auto;html=1;entryX=1;entryY=0.25;entryDx=0;entryDy=0;" edge="1" parent="1" source="w8j8DnIwG2Rcdh9Socys-78" target="w8j8DnIwG2Rcdh9Socys-63">
          <mxGeometry relative="1" as="geometry" />
        </mxCell>
        <mxCell id="w8j8DnIwG2Rcdh9Socys-78" value="&lt;p style=&quot;margin:0px;margin-top:4px;text-align:center;&quot;&gt;&lt;i&gt;&amp;lt;&amp;lt;abstract&amp;gt;&amp;gt;&lt;/i&gt;&lt;br&gt;&lt;b&gt;Figure&lt;/b&gt;&lt;/p&gt;&lt;hr size=&quot;1&quot; style=&quot;border-style:solid;&quot;&gt;&lt;p style=&quot;margin:0px;margin-left:4px;&quot;&gt;+ Image: Type&lt;br&gt;+ Position: Type&lt;/p&gt;&lt;p style=&quot;margin:0px;margin-left:4px;&quot;&gt;+ Color color&lt;/p&gt;&lt;p style=&quot;margin:0px;margin-left:4px;&quot;&gt;+ String name&lt;/p&gt;&lt;hr size=&quot;1&quot; style=&quot;border-style:solid;&quot;&gt;&lt;p style=&quot;margin:0px;margin-left:4px;&quot;&gt;+ Figure():&amp;nbsp;&lt;br&gt;+ getImage(): ImageView&lt;/p&gt;&lt;p style=&quot;margin:0px;margin-left:4px;&quot;&gt;+ setupImageViewEvent() void&lt;/p&gt;&lt;p style=&quot;margin:0px;margin-left:4px;&quot;&gt;+ move() void&lt;/p&gt;" style="verticalAlign=top;align=left;overflow=fill;html=1;whiteSpace=wrap;" vertex="1" parent="1">
          <mxGeometry x="1560" y="536" width="190" height="184" as="geometry" />
        </mxCell>
        <mxCell id="w8j8DnIwG2Rcdh9Socys-81" style="edgeStyle=orthogonalEdgeStyle;rounded=0;orthogonalLoop=1;jettySize=auto;html=1;entryX=1.02;entryY=0.192;entryDx=0;entryDy=0;entryPerimeter=0;" edge="1" parent="1" source="w8j8DnIwG2Rcdh9Socys-78" target="w8j8DnIwG2Rcdh9Socys-60">
          <mxGeometry relative="1" as="geometry" />
        </mxCell>
        <mxCell id="w8j8DnIwG2Rcdh9Socys-82" style="edgeStyle=orthogonalEdgeStyle;rounded=0;orthogonalLoop=1;jettySize=auto;html=1;entryX=1.025;entryY=0.231;entryDx=0;entryDy=0;entryPerimeter=0;" edge="1" parent="1" source="w8j8DnIwG2Rcdh9Socys-78" target="w8j8DnIwG2Rcdh9Socys-62">
          <mxGeometry relative="1" as="geometry" />
        </mxCell>
        <mxCell id="w8j8DnIwG2Rcdh9Socys-84" style="edgeStyle=orthogonalEdgeStyle;rounded=0;orthogonalLoop=1;jettySize=auto;html=1;entryX=1.035;entryY=0.115;entryDx=0;entryDy=0;entryPerimeter=0;" edge="1" parent="1" source="w8j8DnIwG2Rcdh9Socys-78" target="w8j8DnIwG2Rcdh9Socys-67">
          <mxGeometry relative="1" as="geometry" />
        </mxCell>
        <mxCell id="w8j8DnIwG2Rcdh9Socys-85" value="&lt;p style=&quot;margin:0px;margin-top:4px;text-align:center;&quot;&gt;&lt;i&gt;&amp;lt;&amp;lt;Interface&amp;gt;&amp;gt;&lt;/i&gt;&lt;br&gt;&lt;b&gt;MoveLogic&lt;/b&gt;&lt;/p&gt;&lt;hr size=&quot;1&quot; style=&quot;border-style:solid;&quot;&gt;&lt;p style=&quot;margin:0px;margin-left:4px;&quot;&gt;&lt;/p&gt;&lt;p style=&quot;margin:0px;margin-left:4px;&quot;&gt;+ move void&lt;br&gt;+ getPossibleMoves: List&lt;/p&gt;" style="verticalAlign=top;align=left;overflow=fill;html=1;whiteSpace=wrap;" vertex="1" parent="1">
          <mxGeometry x="1880" y="580" width="190" height="140" as="geometry" />
        </mxCell>
        <mxCell id="w8j8DnIwG2Rcdh9Socys-86" style="edgeStyle=orthogonalEdgeStyle;rounded=0;orthogonalLoop=1;jettySize=auto;html=1;entryX=-0.026;entryY=0.343;entryDx=0;entryDy=0;entryPerimeter=0;" edge="1" parent="1" source="w8j8DnIwG2Rcdh9Socys-78" target="w8j8DnIwG2Rcdh9Socys-85">
          <mxGeometry relative="1" as="geometry" />
        </mxCell>
        <mxCell id="w8j8DnIwG2Rcdh9Socys-88" value="Model" style="html=1;whiteSpace=wrap;" vertex="1" parent="1">
          <mxGeometry x="280" y="-40" width="110" height="50" as="geometry" />
        </mxCell>
      </root>
    </mxGraphModel>
  </diagram>
</mxfile>
